<?xml version="1.0" encoding="UTF-8"?>
<svg id="katman_1" data-name="katman 1" xmlns="http://www.w3.org/2000/svg" width="96.7" height="18.5" version="1.1" viewBox="0 0 96.7 18.5">
  <path d="M15.4,9.6h-3.4c-.2-1.5-1.1-2.2-2.6-2.2s-1.8.5-2.4,1.4c-.4.7-.6,1.7-.6,2.8s.2,2,.6,2.7c.5.9,1.3,1.3,2.3,1.3,1.6,0,2.5-.9,2.8-2.6h3.4c-.2,1.7-.9,3-2,3.9-1.1.9-2.5,1.4-4.2,1.4s-3.5-.6-4.7-1.8c-1.2-1.2-1.8-2.8-1.8-4.8s.6-3.7,1.7-5c1.2-1.3,2.8-1.9,4.8-1.9s3,.4,4.1,1.2c1.2.9,1.9,2.1,1.9,3.7Z" fill="#00040a" stroke-width="0"/>
  <path d="M20.9,9h-3.5c0-1.5.8-2.7,2-3.4,1-.6,2.4-.9,4-.9,3.7,0,5.6,1.2,5.6,3.6v6.7c0,1.4.1,2.3.4,2.8h-3.6c-.1-.5-.2-.9-.2-1.3-1,1.1-2.5,1.6-4.3,1.6s-2.4-.3-3.1-.9c-.8-.7-1.3-1.6-1.3-2.9,0-2.2,1.5-3.5,4.4-3.9l2.9-.4c.8-.2,1.3-.6,1.3-1.3s-.2-1.2-.7-1.4c-.3-.2-.9-.3-1.6-.3-1.4,0-2.2.6-2.3,1.9ZM25.5,12.9v-1.3c-.3.3-.9.4-1.9.6-1.1.1-1.8.3-2.1.5-.7.3-1,.9-1,1.6,0,1.1.7,1.6,2.1,1.6s2.9-1,2.9-3Z" fill="#00040a" stroke-width="0"/>
  <path d="M30.5,17.9V.2h3.5v17.7h-3.5Z" fill="#00040a" stroke-width="0"/>
  <path d="M38.9.2v2.9h-3.5V.2h3.5ZM35.4,17.9V5.1h3.5v12.8h-3.5Z" fill="#00040a" stroke-width="0"/>
  <path d="M42.5,17.9V7.4h-2.1v-2.4h2.1v-1c0-1.3.4-2.2,1.2-2.9.8-.6,1.8-1,3.1-1s.5,0,.9,0c.4,0,.7,0,.9,0v2.6c-.4,0-.8,0-1.3,0-.9,0-1.3.5-1.3,1.5v.8h2.4v2.4h-2.4v10.5h-3.5Z" fill="#00040a" stroke-width="0"/>
  <path d="M49.9,11.5c0-2.1.6-3.7,1.8-4.9,1.2-1.2,2.8-1.8,4.9-1.8s3.7.6,4.9,1.8c1.2,1.2,1.8,2.8,1.8,4.9s-.6,3.7-1.8,4.9c-1.2,1.2-2.8,1.8-4.8,1.8s-3.7-.6-4.8-1.8c-1.2-1.2-1.8-2.9-1.8-4.9ZM53.4,11.5c0,1.2.2,2.1.7,2.8.5.9,1.4,1.3,2.4,1.3,2.1,0,3.1-1.4,3.1-4.1s-1-4.1-3.1-4.1-3.1,1.4-3.1,4.1Z" fill="#00040a" stroke-width="0"/>
  <path d="M64.6,17.9V5.1h3.3v2.4h0c.3-.8.9-1.5,1.6-2,.8-.5,1.6-.7,2.5-.7s.5,0,.8,0v3.3c-.4,0-.8-.1-1.3-.1-2.3,0-3.5,1.4-3.5,4.1v5.8h-3.5Z" fill="#00040a" stroke-width="0"/>
  <path d="M74.3,17.9V5.1h3.3v1.8h0c1-1.4,2.3-2.1,3.9-2.1s3.1.7,3.8,2.1c.9-1.4,2.2-2.1,3.9-2.1,3.1,0,4.7,1.5,4.7,4.6v8.6h-3.5v-7.3c0-1.1-.1-1.8-.3-2.2-.3-.6-.9-.9-1.9-.9-1.6,0-2.4,1.1-2.4,3.2v7.1h-3.5v-7.2c0-1.1,0-1.8-.2-2.1-.3-.7-.9-1-1.9-1s-1,.2-1.4.5c-.6.5-.9,1.3-.9,2.4v7.4h-3.5Z" fill="#00040a" stroke-width="0"/>
</svg>